<svg xmlns="http://www.w3.org/2000/svg" viewBox="0 0 96 96">
  <path fill="#00b0f0" d="M0 0h96v96H0z"/>
  <path fill="#fff" d="M34 8h-4l-2 6h4l2-6Zm6 8H15l-3 6h25l3-6Zm29 10H59l-3 6h10l3-6ZM38 14l2-6h-4l-2 6h4Zm44-6h-4l-2 6h4l2-6Zm4 6 2-6h-4l-2 6h4ZM37 26H11l-3 6h12l-4 8h8l4-8h6l3-6Zm31 14h8l12-24h-8L68 40Zm5-24H63l-3 6h10l3-6ZM14 56H8v32h18v-9h-4v6h-8V59h8v3h4v-6H14Zm22 8v-8h-6v32h6V67h6v21h4V64H36Zm18 0v3h8v5H50v16h18V64H54Zm8 21h-8V75h8v10Zm20-29h-6v8h-4v3h4v21h12v-3h-6V67h6v-3h-6v-8Z"/>
</svg>
